# Blender v2.83.2 OBJ File: ''
# www.blender.org
mtllib zombie.mtl
o zombieobject
v -4.000000 -4.000000 1.999999
v -4.000000 -4.000000 -2.000001
v 4.000000 -4.000000 -2.000001
v 4.000000 -4.000000 1.999999
v -4.000000 8.000000 2.000000
v 4.000000 8.000000 2.000000
v 4.000000 8.000000 -1.999999
v -4.000000 8.000000 -1.999999
v -4.000000 8.000000 4.000001
v -4.000000 8.000001 -3.999999
v 4.000000 8.000001 -3.999999
v 4.000000 8.000000 4.000001
v -4.000000 15.999999 4.000002
v 4.000000 15.999999 4.000002
v 4.000000 16.000000 -3.999998
v -4.000000 16.000000 -3.999998
v 8.000000 -4.000000 -2.000001
v 8.000000 -4.000000 1.999999
v 8.000000 8.000000 2.000000
v 8.000000 8.000000 -1.999999
v -8.000000 -4.000000 1.999999
v -8.000000 -4.000000 -2.000001
v -8.000000 8.000000 2.000000
v -8.000000 8.000000 -1.999999
v 0.000000 -16.000000 1.999997
v 0.000000 -16.000000 -2.000003
v 4.000000 -16.000000 -2.000003
v 4.000000 -16.000000 1.999997
v 0.000000 -4.000000 1.999999
v 4.000000 -4.000000 1.999999
v 4.000000 -4.000000 -2.000001
v 0.000000 -4.000000 -2.000001
v -4.000000 -16.000000 1.999997
v -4.000000 -16.000000 -2.000003
v -4.000000 -4.000000 1.999999
v -4.000000 -4.000000 -2.000001
vt 0.437500 0.687500
vt 0.437500 0.750000
vt 0.562500 0.750000
vt 0.562375 0.687500
vt 0.312500 0.687500
vt 0.437500 0.687500
vt 0.437500 0.750000
vt 0.312500 0.750000
vt 0.312500 0.500000
vt 0.437500 0.500000
vt 0.500000 0.500000
vt 0.625000 0.500000
vt 0.625000 0.687500
vt 0.500000 0.687500
vt 0.250000 0.500000
vt 0.250000 0.687500
vt 0.250000 1.000000
vt 0.375000 1.000000
vt 0.375000 0.875000
vt 0.250000 0.875000
vt 0.125000 0.875000
vt 0.250000 0.875000
vt 0.250000 1.000000
vt 0.125000 1.000000
vt 0.125000 0.750000
vt 0.250000 0.750000
vt 0.375000 0.750000
vt 0.375000 0.875000
vt 0.500000 0.750000
vt 0.500000 0.875000
vt 0.000000 0.750000
vt 0.000000 0.875000
vt 0.625000 0.187500
vt 0.625000 0.250000
vt 0.687500 0.250000
vt 0.687500 0.187500
vt 0.562500 0.187500
vt 0.625000 0.187500
vt 0.625000 0.250000
vt 0.562500 0.250000
vt 0.562500 0.000000
vt 0.625000 0.000000
vt 0.687500 0.000000
vt 0.687500 0.187500
vt 0.750000 0.000000
vt 0.750000 0.187500
vt 0.500000 0.000000
vt 0.500000 0.187500
vt 0.750000 0.687500
vt 0.750000 0.750000
vt 0.812500 0.750000
vt 0.812500 0.687500
vt 0.687500 0.687500
vt 0.750000 0.687500
vt 0.750000 0.750000
vt 0.687500 0.750000
vt 0.687500 0.500000
vt 0.750000 0.500000
vt 0.812500 0.500000
vt 0.875000 0.500000
vt 0.875000 0.687500
vt 0.812500 0.687500
vt 0.625000 0.500000
vt 0.625000 0.687500
vt 0.375000 0.187500
vt 0.375000 0.250000
vt 0.437500 0.250000
vt 0.437500 0.187500
vt 0.312500 0.187500
vt 0.375000 0.187500
vt 0.375000 0.250000
vt 0.312500 0.250000
vt 0.312500 0.000000
vt 0.375000 0.000000
vt 0.437500 0.000000
vt 0.437500 0.187500
vt 0.500000 0.000000
vt 0.500000 0.187500
vt 0.125000 0.687500
vt 0.125000 0.750000
vt 0.187500 0.750000
vt 0.187500 0.687500
vt 0.062500 0.687500
vt 0.125000 0.687500
vt 0.125000 0.750000
vt 0.062500 0.750000
vt 0.062500 0.500000
vt 0.125000 0.500000
vt 0.187500 0.500000
vt 0.187500 0.687500
vt 0.250000 0.500000
vt 0.250000 0.687500
vt 0.000000 0.500000
vt 0.000000 0.687500
vn 0.0000 -1.0000 -0.0000
vn 0.0000 1.0000 0.0000
vn 0.0000 -0.0000 1.0000
vn 0.0000 0.0000 -1.0000
vn -1.0000 0.0000 0.0000
vn 1.0000 0.0000 0.0000
usemtl 02_-_Default
s 1
f 1/1/1 2/2/1 3/3/1 4/4/1
f 5/5/2 6/6/2 7/7/2 8/8/2
f 1/9/3 4/10/3 6/6/3 5/5/3
f 3/11/4 2/12/4 8/13/4 7/14/4
f 2/15/5 1/9/5 5/5/5 8/16/5
f 9/17/1 10/18/1 11/19/1 12/20/1
f 13/21/2 14/22/2 15/23/2 16/24/2
f 9/25/3 12/26/3 14/22/3 13/21/3
f 12/26/6 11/27/6 15/28/6 14/22/6
f 11/27/4 10/29/4 16/30/4 15/28/4
f 10/31/5 9/25/5 13/21/5 16/32/5
f 4/33/1 3/34/1 17/35/1 18/36/1
f 6/37/2 19/38/2 20/39/2 7/40/2
f 4/41/3 18/42/3 19/38/3 6/37/3
f 18/42/6 17/43/6 20/44/6 19/38/6
f 17/43/4 3/45/4 7/46/4 20/44/4
f 3/47/5 4/41/5 6/37/5 7/48/5
f 21/49/1 22/50/1 2/51/1 1/52/1
f 23/53/2 5/54/2 8/55/2 24/56/2
f 21/57/3 1/58/3 5/54/3 23/53/3
f 2/59/4 22/60/4 24/61/4 8/62/4
f 22/63/5 21/57/5 23/53/5 24/64/5
f 25/65/1 26/66/1 27/67/1 28/68/1
f 29/69/2 30/70/2 31/71/2 32/72/2
f 25/73/3 28/74/3 30/70/3 29/69/3
f 28/74/6 27/75/6 31/76/6 30/70/6
f 27/75/4 26/77/4 32/78/4 31/76/4
f 33/79/1 34/80/1 26/81/1 25/82/1
f 35/83/2 29/84/2 32/85/2 36/86/2
f 33/87/3 25/88/3 29/84/3 35/83/3
f 25/88/6 26/89/6 32/90/6 29/84/6
f 26/89/4 34/91/4 36/92/4 32/90/4
f 34/93/5 33/87/5 35/83/5 36/94/5
