# File produced by Open Asset Import Library (http://www.assimp.sf.net)
# (assimp v5.0.1588609223)

mtllib result.mtl

# 36 vertex positions
v  -4 -4 1.9999996
v  -4 -4 -2.0000002
v  4 -4 -2.0000002
v  4 -4 1.9999996
v  -4 8 1.9999992
v  4 8 1.9999992
v  4 8 -2.0000007
v  -4 8 -2.0000007
v  -4 8 3.9999998
v  -4 8 -4.0000005
v  4 8 -4.0000005
v  4 8 3.9999998
v  -4 16 3.9999993
v  4 16 3.9999993
v  4 16 -4.000001
v  -4 16 -4.000001
v  8 -4 -2.0000002
v  8 -4 1.9999996
v  8 8 1.9999992
v  8 8 -2.0000007
v  -8 -4 1.9999996
v  -8 -4 -2.0000002
v  -8 8 1.9999992
v  -8 8 -2.0000007
v  0 -16 1.9999996
v  0 -16 -2.0000002
v  4 -16 -2.0000002
v  4 -16 1.9999996
v  0 -4 1.9999992
v  4 -4 1.9999992
v  4 -4 -2.0000007
v  0 -4 -2.0000007
v  -4 -16 1.9999996
v  -4 -16 -2.0000002
v  -4 -4 1.9999992
v  -4 -4 -2.0000007

# 73 UV coordinates
vt 0.4375 0.6875 0
vt 0.4375 0.75 0
vt 0.5625 0.75 0
vt 0.56237519 0.6875 0
vt 0.3125 0.6875 0
vt 0.3125 0.75 0
vt 0.3125 0.5 0
vt 0.4375 0.5 0
vt 0.5 0.5 0
vt 0.5 0.6875 0
vt 0.625 0.5 0
vt 0.625 0.6875 0
vt 0.25 0.5 0
vt 0.25 0.6875 0
vt 0.25 1 0
vt 0.375 1 0
vt 0.375 0.875 0
vt 0.25 0.875 0
vt 0.125 0.875 0
vt 0.125 1 0
vt 0.125 0.75 0
vt 0.25 0.75 0
vt 0.375 0.75 0
vt 0.5 0.75 0
vt 0.5 0.875 0
vt 0 0.75 0
vt 0.12500001 0.875 0
vt 0 0.875 0
vt 0.625 0.1875 0
vt 0.625 0.25 0
vt 0.6875 0.25 0
vt 0.6875 0.1875 0
vt 0.5625 0.1875 0
vt 0.5625 0.25 0
vt 0.5625 0 0
vt 0.625 0 0
vt 0.6875 0 0
vt 0.75 0 0
vt 0.75 0.1875 0
vt 0.5 0 0
vt 0.5 0.1875 0
vt 0.75 0.6875 0
vt 0.75 0.75 0
vt 0.8125 0.75 0
vt 0.8125 0.6875 0
vt 0.6875 0.6875 0
vt 0.6875 0.75 0
vt 0.6875 0.5 0
vt 0.75 0.5 0
vt 0.8125 0.5 0
vt 0.875 0.5 0
vt 0.875 0.6875 0
vt 0.375 0.1875 0
vt 0.375 0.25 0
vt 0.4375 0.25 0
vt 0.4375 0.1875 0
vt 0.3125 0.1875 0
vt 0.3125 0.25 0
vt 0.3125 0 0
vt 0.375 0 0
vt 0.4375 0 0
vt 0.25 0 0
vt 0.25 0.1875 0
vt 0.125 0.6875 0
vt 0.1875 0.75 0
vt 0.1875 0.6875 0
vt 0.0625 0.6875 0
vt 0.0625 0.75 0
vt 0.0625 0.5 0
vt 0.125 0.5 0
vt 0.1875 0.5 0
vt 0 0.5 0
vt 0 0.6875 0

# 6 vertex normals
vn 0 -1 4.3711388e-08
vn 0 1 -4.3711388e-08
vn 0 4.3711388e-08 1
vn 1 0 0
vn 0 -4.3711388e-08 -1
vn -1 0 -0

# Mesh 'Zombie' with 36 faces
g Zombie
usemtl 02 - Default
f  1/1/1 2/2/1 3/3/1 4/4/1
f  5/5/2 6/1/2 7/2/2 8/6/2
f  1/7/3 4/8/3 6/1/3 5/5/3
f  4/8/4 3/9/4 7/10/4 6/1/4
f  3/9/5 2/11/5 8/12/5 7/10/5
f  2/13/6 1/7/6 5/5/6 8/14/6
f  9/15/1 10/16/1 11/17/1 12/18/1
f  13/19/2 14/18/2 15/15/2 16/20/2
f  9/21/3 12/22/3 14/18/3 13/19/3
f  12/22/4 11/23/4 15/17/4 14/18/4
f  11/23/5 10/24/5 16/25/5 15/17/5
f  10/26/6 9/21/6 13/27/6 16/28/6
f  4/29/1 3/30/1 17/31/1 18/32/1
f  6/33/2 19/29/2 20/30/2 7/34/2
f  4/35/3 18/36/3 19/29/3 6/33/3
f  18/36/4 17/37/4 20/32/4 19/29/4
f  17/37/5 3/38/5 7/39/5 20/32/5
f  3/40/6 4/35/6 6/33/6 7/41/6
f  21/42/1 22/43/1 2/44/1 1/45/1
f  23/46/2 5/42/2 8/43/2 24/47/2
f  21/48/3 1/49/3 5/42/3 23/46/3
f  1/49/4 2/50/4 8/45/4 5/42/4
f  2/50/5 22/51/5 24/52/5 8/45/5
f  22/11/6 21/48/6 23/46/6 24/12/6
f  25/53/1 26/54/1 27/55/1 28/56/1
f  29/57/2 30/53/2 31/54/2 32/58/2
f  25/59/3 28/60/3 30/53/3 29/57/3
f  28/60/4 27/61/4 31/56/4 30/53/4
f  27/61/5 26/40/5 32/41/5 31/56/5
f  26/62/6 25/59/6 29/57/6 32/63/6
f  33/64/1 34/21/1 26/65/1 25/66/1
f  35/67/2 29/64/2 32/21/2 36/68/2
f  33/69/3 25/70/3 29/64/3 35/67/3
f  25/70/4 26/71/4 32/66/4 29/64/4
f  26/71/5 34/13/5 36/14/5 32/66/5
f  34/72/6 33/69/6 35/67/6 36/73/6

